<?xml version="1.0" standalone="no"?>
<!DOCTYPE svg PUBLIC "-//W3C//DTD SVG 20010904//EN"
 "http://www.w3.org/TR/2001/REC-SVG-20010904/DTD/svg10.dtd">
<svg version="1.0" xmlns="http://www.w3.org/2000/svg"
 width="960.000000pt" height="960.000000pt" viewBox="0 0 960.000000 960.000000"
 preserveAspectRatio="xMidYMid meet">
<metadata>
Created by potrace 1.14, written by Peter Selinger 2001-2017
</metadata>
<g transform="translate(0.000000,960.000000) scale(0.100000,-0.100000)"
fill="#000000" stroke="none">
<path d="M4233 9589 c-7 -7 -13 -10 -13 -6 0 13 -198 -140 -199 -154 -1 -3
-21 -27 -46 -53 -47 -50 -135 -171 -135 -186 0 -4 -4 -10 -9 -12 -26 -9 -172
-350 -187 -435 -1 -6 -7 -27 -13 -45 -6 -18 -12 -44 -15 -58 -3 -14 -12 -61
-21 -105 -9 -44 -18 -98 -21 -120 -2 -22 -7 -56 -9 -76 -29 -203 -34 -694 -9
-859 2 -19 7 -62 9 -95 3 -33 7 -69 9 -80 2 -11 7 -49 11 -85 4 -36 9 -74 11
-85 2 -11 7 -42 10 -70 4 -27 10 -58 16 -67 5 -10 7 -18 4 -18 -2 0 0 -17 5
-37 5 -21 12 -48 15 -61 6 -28 81 -247 124 -362 17 -47 34 -96 36 -109 3 -14
7 -28 10 -32 4 -7 21 -86 30 -144 3 -16 7 -41 10 -55 12 -61 16 -147 17 -305
2 -198 -8 -319 -39 -500 -3 -16 -7 -43 -10 -60 -12 -69 -36 -178 -44 -201 -5
-13 -7 -24 -5 -24 2 0 0 -12 -6 -27 -6 -16 -13 -39 -15 -53 -3 -14 -16 -60
-31 -104 -21 -66 -57 -196 -78 -283 -11 -47 -66 -142 -99 -171 -28 -25 -42
-30 -74 -27 -44 4 -87 27 -117 65 -47 57 -56 93 -61 229 -2 57 -7 116 -9 130
-3 14 -8 44 -11 66 -7 48 -11 69 -22 115 -17 67 -16 66 -42 145 -12 39 -29 86
-38 105 -8 19 -16 37 -16 40 -2 4 -50 101 -81 161 -5 10 -13 19 -17 19 -5 0
-8 5 -8 11 0 10 -38 68 -80 123 -45 59 -152 177 -199 221 -30 27 -62 57 -70
65 -9 8 -45 38 -81 65 -36 28 -67 52 -70 55 -7 7 -120 81 -155 102 -42 25
-282 142 -333 164 -45 18 -124 20 -130 3 -2 -5 -9 -9 -16 -9 -27 0 -84 -86
-77 -115 2 -5 4 -19 6 -30 1 -11 9 -41 18 -66 20 -59 30 -163 30 -324 1 -193
-12 -387 -39 -612 -3 -18 -6 -48 -8 -65 -3 -18 -7 -51 -11 -73 -3 -22 -8 -53
-11 -70 -11 -70 -35 -189 -64 -320 -39 -169 -36 -157 -43 -175 -3 -8 -13 -44
-22 -79 -9 -36 -23 -83 -30 -105 -8 -23 -16 -53 -19 -68 -2 -15 -7 -31 -9 -35
-11 -17 -91 -343 -111 -448 -24 -128 -36 -197 -41 -230 -3 -22 -8 -53 -12 -70
-3 -16 -7 -44 -9 -62 -3 -36 -13 -106 -19 -143 -2 -14 -7 -61 -11 -105 -3 -44
-8 -96 -9 -115 -18 -191 -25 -645 -11 -745 4 -27 8 -63 10 -80 2 -16 7 -43 10
-60 3 -16 8 -43 12 -60 15 -84 54 -233 71 -275 4 -8 7 -17 8 -20 24 -95 137
-331 221 -465 31 -49 61 -92 66 -93 4 -2 8 -8 8 -14 0 -31 275 -333 376 -412
15 -12 53 -42 84 -68 32 -27 63 -48 68 -48 6 0 12 -4 14 -8 4 -12 218 -154
218 -146 0 4 8 0 18 -9 26 -23 229 -126 236 -119 3 3 6 0 6 -6 0 -7 5 -12 10
-12 6 0 29 -9 53 -19 115 -53 393 -153 457 -165 14 -2 37 -9 53 -15 15 -6 27
-8 27 -5 0 2 8 1 18 -5 15 -8 162 -41 244 -55 15 -3 31 -7 35 -9 5 -3 35 -8
67 -12 33 -3 63 -8 67 -10 3 -3 26 -7 50 -9 24 -3 85 -10 134 -15 273 -31 818
-35 1026 -7 19 3 61 8 94 11 32 4 66 8 75 10 8 2 44 6 80 10 36 4 68 9 71 11
3 2 26 6 50 9 24 3 58 8 74 12 17 4 38 8 48 9 9 1 18 2 20 4 1 1 11 3 22 4 11
2 36 7 55 11 19 5 37 9 40 10 3 1 19 4 35 8 17 4 40 9 52 12 34 6 256 65 273
72 8 3 20 7 25 8 6 0 17 4 25 7 8 4 60 21 115 38 121 39 352 129 455 177 173
81 300 145 306 154 3 5 10 7 15 4 5 -4 9 -1 9 4 0 6 5 11 10 11 6 0 35 15 65
34 29 19 56 32 59 29 3 -4 6 -1 6 5 0 7 7 12 15 12 8 0 15 3 15 8 0 4 17 16
38 27 47 25 166 107 170 117 2 4 8 8 13 8 10 0 9 -1 134 103 90 74 235 220
289 292 207 272 362 623 421 958 3 15 8 42 11 60 3 17 7 48 10 67 2 19 6 58 9
85 19 166 20 468 1 635 -9 78 -27 217 -32 245 -3 17 -7 44 -9 60 -2 17 -4 30
-5 30 -2 0 -8 30 -36 175 -7 33 -76 300 -86 330 -51 152 -129 387 -132 395 -3
11 -23 61 -33 85 -3 8 -7 17 -8 20 -3 9 -18 45 -58 140 -46 111 -127 272 -162
324 -14 21 -25 39 -25 41 0 8 -64 100 -72 103 -4 2 -8 8 -8 14 0 8 -14 29 -65
96 -5 7 -18 22 -27 33 -10 10 -18 23 -18 28 0 5 -3 11 -8 13 -19 8 -115 155
-164 249 -29 57 -55 106 -58 109 -3 3 -16 32 -29 65 -13 33 -31 78 -41 100
-20 46 -91 261 -115 350 -28 103 -35 129 -40 150 -3 11 -8 31 -11 45 -13 55
-24 106 -29 130 -3 14 -8 37 -11 52 -3 15 -5 30 -5 33 0 2 -5 19 -10 37 -5 18
-12 53 -15 78 -2 25 -7 53 -10 62 -7 23 -13 56 -19 103 -3 22 -10 67 -15 99
-5 33 -9 62 -8 65 0 3 -1 8 -2 11 -1 3 -3 22 -6 43 -6 64 -50 124 -98 134 -6
1 -21 4 -33 7 -61 13 -133 -38 -212 -154 -95 -139 -159 -285 -196 -445 -22
-96 -27 -119 -30 -155 -2 -19 -4 -35 -5 -35 -8 0 -13 -329 -6 -415 4 -39 8
-75 21 -165 12 -80 16 -103 21 -125 3 -14 8 -38 11 -55 10 -58 54 -221 88
-325 35 -109 62 -202 70 -239 3 -11 8 -31 11 -43 3 -13 8 -34 10 -48 2 -14 8
-45 13 -70 5 -25 12 -65 15 -90 4 -25 10 -74 15 -110 10 -75 7 -411 -4 -485
-39 -266 -139 -510 -273 -664 -55 -63 -163 -53 -226 21 -36 42 -87 139 -101
193 -5 17 -10 35 -11 40 -6 19 -35 150 -40 178 -14 91 -18 130 -30 282 -13
161 -7 607 11 805 2 19 6 71 10 115 3 44 8 96 10 115 18 156 0 401 -40 570 -3
14 -9 39 -11 55 -10 52 -61 226 -97 330 -89 253 -178 441 -338 710 -58 97
-280 418 -309 445 -3 3 -30 37 -60 75 -30 39 -59 75 -65 81 -59 67 -195 268
-195 289 0 2 -13 27 -30 55 -16 27 -28 50 -26 50 3 0 -8 26 -23 58 -49 101
-166 434 -177 502 -1 8 -5 25 -8 38 -3 12 -8 30 -10 40 -2 9 -11 47 -20 83
-23 101 -28 122 -31 149 -2 14 -9 50 -15 80 -10 54 -15 82 -25 158 -3 20 -7
48 -10 62 -2 14 -7 52 -11 85 -3 33 -7 74 -10 90 -2 17 -6 64 -9 105 -3 41 -8
93 -11 115 -6 45 -39 105 -59 105 -7 0 -15 5 -17 11 -5 16 -100 23 -115 8z
m-1722 -5346 c38 -23 68 -84 64 -131 -4 -41 -14 -124 -20 -162 -2 -14 -6 -52
-10 -85 -3 -33 -8 -71 -10 -85 -3 -14 -7 -47 -9 -75 -3 -27 -8 -68 -12 -90 -4
-22 -8 -51 -10 -65 -1 -14 -2 -26 -3 -27 -1 -2 -1 -6 -2 -10 -1 -5 -10 -20
-21 -36 -65 -91 -208 -73 -254 33 -12 26 -12 84 0 155 3 22 8 63 11 90 2 28 6
59 9 70 2 11 7 52 11 90 4 39 9 79 11 90 2 11 6 46 9 77 6 69 26 123 57 149
48 40 122 45 179 12z m-133 -1220 c54 -39 62 -71 55 -227 -6 -141 -7 -302 -3
-493 2 -101 2 -103 -29 -142 -33 -41 -42 -46 -98 -56 -67 -11 -146 46 -160
115 -9 45 -10 505 -1 632 7 111 22 144 77 177 44 27 119 24 159 -6z"/>
<path d="M7011 8333 c-37 -7 -113 -91 -151 -168 -19 -38 -35 -72 -35 -75 0 -3
-4 -11 -8 -17 -5 -7 -10 -21 -12 -30 -3 -10 -16 -56 -30 -103 -24 -79 -39
-162 -37 -202 1 -30 32 -82 60 -103 20 -15 43 -20 90 -20 60 0 64 2 97 38 19
21 35 41 36 45 0 4 2 14 4 22 2 8 6 33 10 54 4 22 11 50 16 63 5 13 6 23 3 23
-4 0 -2 6 4 13 6 6 11 17 11 22 4 43 57 159 87 192 100 107 3 272 -145 246z"/>
<path d="M1379 7466 c-36 -18 -55 -42 -79 -96 -13 -31 10 -97 50 -140 22 -24
45 -56 52 -71 7 -16 16 -29 20 -29 5 0 7 -3 6 -7 -1 -5 11 -35 26 -67 14 -33
29 -71 33 -85 3 -14 8 -30 12 -36 3 -5 7 -19 8 -29 7 -40 47 -96 82 -113 64
-30 130 -17 178 37 22 24 41 83 34 105 -2 6 -5 21 -8 35 -8 45 -55 174 -88
240 -65 133 -66 134 -140 215 -53 59 -124 75 -186 41z"/>
</g>
</svg>
