<svg aria-hidden="true" style="position:absolute;width:0;height:0;overflow:hidden" xmlns="http://www.w3.org/2000/svg">
    <defs>
        <symbol id="icon-instagram" viewBox="0 0 32 32">
            <path style="fill:var(--color1, #000)" d="M31.452 5.724A5.827 5.827 0 0 0 26.276.548a96.718 96.718 0 0 0-20.553 0A5.827 5.827 0 0 0 .547 5.724a96.718 96.718 0 0 0 0 20.553 5.827 5.827 0 0 0 5.176 5.176c6.844.73 13.709.73 20.553 0a5.828 5.828 0 0 0 5.176-5.176c.73-6.844.73-13.708 0-20.553z"/>
            <path style="fill:var(--color1, #000)" d="M29.712 6.881a5.17 5.17 0 0 0-4.593-4.593 85.795 85.795 0 0 0-18.238 0 5.171 5.171 0 0 0-4.593 4.593 85.795 85.795 0 0 0 0 18.238 5.17 5.17 0 0 0 4.593 4.593 85.795 85.795 0 0 0 18.238 0 5.17 5.17 0 0 0 4.593-4.593 85.795 85.795 0 0 0 0-18.238z"/>
            <path style="fill:var(--color1, #000)" d="m.48 25.613.068.664a5.828 5.828 0 0 0 5.176 5.176c6.844.73 13.709.73 20.552 0a5.827 5.827 0 0 0 5.176-5.176c.024-.221.046-.442.069-.664H.48z"/>
            <path style="fill:var(--color1, #000)" d="M31.452 26.276c.393-3.678.574-7.361.544-11.044l-7.314-7.314c-.914-1.043-2.249-1.694-3.817-1.751-3.225-.116-6.461-.11-9.687 0-2.679.092-4.553 1.893-5.033 4.54-.085.467-.136.941-.202 1.411v7.759c.037.252.091.502.108.755.107 1.61.769 2.989 1.828 3.922l7.443 7.443a96.755 96.755 0 0 0 10.954-.545 5.828 5.828 0 0 0 5.176-5.176z"/>
            <path style="fill:var(--color1, #000)" d="M31.452 26.276a5.827 5.827 0 0 1-5.176 5.176 96.738 96.738 0 0 1-10.953.545l-7.432-7.432c.862.754 1.985 1.213 3.288 1.262 3.225.121 6.461.118 9.686.002 2.917-.106 5.028-2.264 5.119-5.181.097-3.097.097-6.202 0-9.3-.042-1.346-.514-2.53-1.297-3.426l7.31 7.31a96.729 96.729 0 0 1-.545 11.044z"/>
            <path style="fill:var(--color1, #000)" d="M19.776 12.535a5.125 5.125 0 1 0-7.241 7.242l11.859 11.859a99.877 99.877 0 0 0 1.883-.182 5.827 5.827 0 0 0 5.176-5.176c.067-.627.128-1.255.182-1.883L19.776 12.536zM31.938 19.447l-9.544-9.544a1.22 1.22 0 1 0-1.707 1.707l11.08 11.08c.075-1.081.132-2.162.171-3.243z"/>
            <path style="fill:var(--color1, #000)" d="M5.943 12.119c.067-.471.117-.944.202-1.411.48-2.647 2.354-4.447 5.033-4.54 3.226-.111 6.461-.117 9.687 0 2.916.105 5.028 2.264 5.119 5.181.097 3.097.097 6.202 0 9.3-.091 2.917-2.202 5.076-5.119 5.181-3.225.116-6.462.119-9.687-.002-2.916-.11-4.933-2.274-5.128-5.195-.017-.253-.071-.503-.108-.755v-7.759zm10.06 11.982c1.476 0 2.954.044 4.428-.01 2.311-.086 3.733-1.465 3.787-3.774.067-2.877.067-5.758 0-8.636-.054-2.309-1.477-3.72-3.787-3.769a208.195 208.195 0 0 0-8.8 0c-2.293.048-3.719 1.431-3.781 3.714a161.406 161.406 0 0 0 0 8.746c.062 2.283 1.488 3.634 3.781 3.719 1.456.054 2.915.01 4.372.01z"/>
            <path fill="#fff" style="fill:var(--color2, #fff)" d="M5.943 12.119c.067-.471.117-.944.202-1.411.48-2.647 2.354-4.447 5.033-4.54 3.226-.111 6.461-.117 9.687 0 2.916.105 5.028 2.264 5.119 5.181.097 3.097.097 6.202 0 9.3-.091 2.917-2.202 5.076-5.119 5.181-3.225.116-6.462.119-9.687-.002-2.916-.11-4.933-2.274-5.128-5.195-.017-.253-.071-.503-.108-.755v-7.759zm10.06 11.982c1.476 0 2.954.044 4.428-.01 2.311-.086 3.733-1.465 3.787-3.774.067-2.877.067-5.758 0-8.636-.054-2.309-1.477-3.72-3.787-3.769a208.195 208.195 0 0 0-8.8 0c-2.293.048-3.719 1.431-3.781 3.714a161.406 161.406 0 0 0 0 8.746c.062 2.283 1.488 3.634 3.781 3.719 1.456.054 2.915.01 4.372.01z"/>
            <path fill="#fff" style="fill:var(--color2, #fff)" d="M16 10.875a5.125 5.125 0 1 0 0 10.25 5.125 5.125 0 0 0 0-10.25zm0 8.486a3.361 3.361 0 1 1 0-6.723 3.361 3.361 0 0 1 0 6.723zM22.644 10.641a1.22 1.22 0 1 1-2.439 0 1.22 1.22 0 0 1 2.439 0z"/>
        </symbol>
        <symbol id="icon-facebook" viewBox="0 0 31 32">
            <path fill="#436eab" style="fill:var(--color3, #436eab)" d="M27.65.549H3.318c-.88 0-1.724.347-2.346.963S0 2.965 0 3.838v24.12c0 .872.35 1.709.972 2.326s1.466.963 2.346.963h9.487V20.81H8.45v-4.912h4.355v-3.744c0-4.259 2.558-6.611 6.475-6.611 1.876 0 3.838.332 3.838.332v4.18h-2.161c-2.13 0-2.794 1.31-2.794 2.654v3.19h4.754l-.76 4.912h-3.994v10.437h9.487c.88 0 1.724-.347 2.346-.963s.972-1.453.972-2.326V3.839c0-.872-.35-1.709-.972-2.326S28.53.55 27.65.55z"/>
        </symbol>
        <symbol id="icon-Group-1-3" viewBox="0 0 31 32">
            <path fill="#ff6b09" style="fill:var(--color4, #ff6b09)" d="M7.942 14.958c0 .165-.25.165-.25 0a6.343 6.343 0 0 1 12.686.001c0 .165-.249.165-.249 0 0-2.367-3.89-2.369-3.89 0 0 .165-.256.165-.256 0 0-2.361-3.896-2.361-3.896 0 0 .165-.256.165-.256 0 0-2.357-3.888-2.373-3.888 0zm3.911-.919c.067-1.363.281-2.584.593-3.517.249-.741.563-1.304.919-1.62a6.097 6.097 0 0 0-5.323 4.949c.921-1.328 3.047-1.222 3.811.189zm4.11-.062c-.069-1.31-.277-2.482-.576-3.376-.773-2.313-1.931-2.313-2.704 0-.299.894-.506 2.066-.576 3.376.831-1.412 3.026-1.412 3.857 0zm4.064-.127a6.094 6.094 0 0 0-5.323-4.949c.358.316.671.879.919 1.62.311.933.526 2.155.593 3.517.768-1.418 2.9-1.502 3.811-.189zM13.202 17.86v-1.288c-.232.154-.415.392-.415.683 0 .283.186.47.415.605zm.25.4c-.445-.204-.913-.442-.913-1.005 0-.581.442-.872.913-1.089v2.094zM14.867 19.803v1.303c.235-.156.419-.395.419-.686 0-.286-.189-.479-.419-.617zm-.248-.401c.446.207.918.452.918 1.018 0 .582-.445.873-.918 1.089v-2.107z"/>
            <path fill="#ff6b09" style="fill:var(--color4, #ff6b09)" d="M14.867 15.106c1.024.237 2.077 1.003 2.077 2.149 0 .981-1.658.945-1.658 0 0-.292-.184-.532-.419-.686v1.833c.948.31 2.08.865 2.08 2.018 0 1.147-1.053 1.912-2.08 2.147-.005 1.092-1.662 1.09-1.665-.001-.584-.135-1.092-.407-1.458-.768-.385-.38-.612-.858-.612-1.378 0-.966 1.656-.966 1.656 0 0 .289.183.527.415.681V19.27c-.94-.304-2.078-.876-2.078-2.018 0-1.147 1.053-1.912 2.078-2.147.005-1.092 1.662-1.09 1.665.002zm-1.415.003v.199c-.975.193-2.08.818-2.08 1.944 0 1.083 1.213 1.568 2.08 1.836v2.42c-.469-.214-.913-.503-.913-1.087 0-.638-1.159-.638-1.159 0 0 .451.201.867.539 1.199.43.425.951.627 1.533.743v.201c0 .768 1.166.768 1.166 0v-.199c.978-.195 2.078-.819 2.078-1.944 0-1.093-1.21-1.563-2.078-1.837v-2.418c.47.214.918.503.918 1.09 0 .621 1.157.647 1.157 0 0-1.125-1.099-1.75-2.075-1.945v-.201c0-.768-1.166-.768-1.166 0z"/>
            <path fill="none" stroke="#ff6b09" style="stroke:var(--color4, #ff6b09)" stroke-width=".615" d="M31.077 4.615V.307H.308v31.385h30.769v-4.308"/>
        </symbol>
        <symbol id="icon-Group-1-1" viewBox="0 0 31 32">
            <path fill="#ff6b09" style="fill:var(--color4, #ff6b09)" d="M20.406 8.558H13.29a.841.841 0 0 0-.84.84v2.946l-5.287 2.219c-.06.025-.101.082-.105.146s.027.127.083.16l.674.403v4.3a.776.776 0 0 0-.603.756v.414c0 .095.077.172.172.172h1.207a.172.172 0 0 0 .172-.172v-.414a.777.777 0 0 0-.604-.756v-4.094l.533.319c-.016.123-.002-.214-.008 2.002 0 .729 1.866 1.119 3.765 1.141v3.356a.84.84 0 0 0 .84.838h7.116a.84.84 0 0 0 .839-.839V9.397a.846.846 0 0 0-.839-.84zM8.42 20.328v.242h-.863v-.242a.432.432 0 1 1 .863 0zm11.986 2.462H13.29a.494.494 0 0 1-.496-.494v-1.163h8.105v1.164c0 .27-.225.494-.494.494zm.494-2.002h-8.105v-1.847c.927-.011 3.767-.215 3.767-1.142-.001-1.392.002-1.957-.004-2.005l1.546-.926a.171.171 0 0 0-.022-.306l-5.286-2.219v-1.438h8.105v9.883zm-8.278-4.132c-.955 0-2.794.123-3.592.645.005-1.595-.055-1.491.141-1.627.496-.365 1.915-.62 3.451-.62.67 0 3.595.184 3.595.803v1.444c-.806-.526-2.636-.645-3.595-.645zm.173-7.258c0-.273.222-.495.495-.495h7.116c.273 0 .494.225.494.495v1.163h-8.105V9.398zm-.173 3.246 5.012 2.104-1.242.743c-.66-.655-2.844-.782-3.77-.782-.927 0-3.111.127-3.77.782l-1.242-.743 5.012-2.104zM9.03 17.799c0-.279 1.234-.799 3.592-.799 2.36 0 3.595.52 3.595.799s-1.235.799-3.595.799c-2.359 0-3.592-.52-3.592-.799z"/>
            <path fill="#ff6b09" style="fill:var(--color4, #ff6b09)" d="M16.848 21.392a.57.57 0 1 0 0 1.139.57.57 0 0 0 0-1.139zm0 .794a.225.225 0 1 1 0-.45.225.225 0 0 1 0 .45zM17.505 9.56h-1.313v.344h1.313V9.56z"/>
            <path fill="none" stroke="#ff6b09" style="stroke:var(--color4, #ff6b09)" stroke-width=".615" d="M31.077 4.615V.307H.308v31.385h30.769v-4.308"/>
        </symbol>
        <symbol id="icon-Group-1-2" viewBox="0 0 31 32">
            <path fill="#ff6b09" style="fill:var(--color4, #ff6b09)" d="M7.953 23.273h12.362c.061-1.41-.04-3.749-.907-4.862l-.031-.04-1.894-.951c.041-.139.061-.266.07-.359a.666.666 0 0 0-.046-.313c-.313-.748-.974-1.141-1.337-1.309.111-.223.182-.463.217-.708a.609.609 0 0 0 .426-.439l.221-.898a.607.607 0 0 0-.206-.617c.623-1.416-.421-2.751-.478-2.821-1.131-1.222-2.559-.994-2.635-.98-2.061.432-2.857 2.011-2.408 3.864a.61.61 0 0 0-.14.554l.222.899a.605.605 0 0 0 .423.437c.063.449.253.854.532 1.181v.712c-2.958 1.515-1.084.548-3.454 1.748-.005.022-1.112 1.2-.948 4.689l.01.213zm11.932-.447H17.85v-.855l1.346-3.081c.674 1.119.699 3.255.689 3.935zm-2.776-5.803c-.079.902-.573.629-.878 1.324a1.025 1.025 0 0 1-.248-.92c.117-.622-.263-.807-.169-1.461l.014-.015v-.002c.008-.009.083-.098.105-.126.805.351 1.193 1.003 1.177 1.2zm-4.319-.709a2.294 2.294 0 0 0 2.573.034c.052.514.253.617.181.995-.013.07-.021.139-.025.207l-1.386 1.562-1.771-1.997.428-.223v-.579zm-.557-1.911v-2.387c.216-.399.51-.688.875-.861.979.554 2.105 1.38 2.86 2.211-.001 1.059.003 1.062-.004 1.149l-.001.005a1.87 1.87 0 0 1-1.864 1.759 1.873 1.873 0 0 1-1.867-1.876zm-.276 2.929 2.177 2.454 1.461-1.647c.033.096.08.187.134.275l-1.595 1.995-2.379-2.975.202-.101zm4.457-3.289v-.691l.166-.191c.009.35.047-.063-.166.882zm-2.616-4.627c.088.005 1.276-.181 2.215.833.037.046.801 1.031.494 2.108-.105-.479-.288-1.093-.578-1.387l-.316.315c.286.289.474 1.171.545 1.628-1.311-1.372-3.002-2.24-3.025-2.255-.085.053-.8.189-1.32 1.199l-.025.048v.742l-.066.001c-.33-1.594.302-2.861 2.076-3.233zm-2.123 3.693.112.456v.479l-.187-.757c-.027-.113.056-.156.074-.178zm-.328 4.529 2.787 3.485 1.885-2.358c.205.184.304.21.739.433l-.147-.497c-.037-.126.11-.329.199-.422.199-.108.364-.261.488-.451l1.538.772-1.431 3.277v.948h-6.543v-.949L9.43 18.599l1.917-.962zm-2.276 1.253 1.346 3.08v.855H8.382c-.01-.68.015-2.815.689-3.934z"/>
            <path fill="none" stroke="#ff6b09" style="stroke:var(--color4, #ff6b09)" stroke-width=".615" d="M31.008 4.615V.307H.307v31.385h30.701v-4.308"/>
        </symbol>
        <symbol id="icon-fire" viewBox="0 0 23 32">
            <path fill="#ff6b09" style="fill:var(--color4, #ff6b09)" d="M21.909 16.593c-.284-.635-.675-1.261-1.247-1.983-1.442-1.813-1.882-5.857-1.887-5.896a.488.488 0 0 0-.337-.412.495.495 0 0 0-.518.141c-1.721 1.925-.997 4.897-.606 6.085.108.325.225.708.308 1.096.636 3.137-.592 4.558-.88 4.844-.279.078-.469.039-.645-.15-.606-.664-.807-2.841-.523-5.678a5.797 5.797 0 0 0-.039-1.581c-.598-3.486-2.791-5.722-3.349-6.507C10.651 4.283 10.494.506 10.49.472a.487.487 0 0 0-.763-.383C7.165 1.83 7.385 6.024 7.742 8.365c.083.543.244 1.096.523 1.794.992 2.497-.196 5.721-.205 5.75s-.02.053-.024.082c-.152.795-.406 1.27-.689 1.27a.327.327 0 0 1-.093-.015c-.347-.073-.528-.441-.533-.761-.02-4.136-4.17-5.527-4.214-5.542a.485.485 0 0 0-.518.146.476.476 0 0 0-.068.533c.049.102.205.548.098 2.124a18.09 18.09 0 0 1-.768 4.16C.263 21.125.42 24.175.43 24.321c.759 8.257 12.635 9.704 19.683 5.052.772-.509 1.403-1.091 1.868-1.731 2.601-3.588 1.071-8.461-.068-11.05zM3.845 24.481a.484.484 0 0 1-.46.509h-.029a.487.487 0 0 1-.489-.456c-.044-.708-.034-1.45.02-2.255a.49.49 0 0 1 .978.068 15.622 15.622 0 0 0-.02 2.133zm.239-4.296a.485.485 0 0 1-.484.427c-.02 0-.039 0-.064-.005a.488.488 0 0 1-.425-.538l.235-1.872a.494.494 0 0 1 .548-.422c.269.034.46.276.425.543l-.235 1.867z"/>
        </symbol>
        <symbol id="icon-phone" viewBox="0 0 32 32">
            <path fill="#ff6b09" style="fill:var(--color4, #ff6b09)" d="M4.657.003a1.969 1.969 0 0 0-1.392.678L.67 3.65c.004-.009-.01-.008-.084.101a.656.656 0 0 0-.09.184C-.56 7.437.148 11.289 1.872 14.953S6.347 22.123 9.505 25c3.158 2.877 6.721 5.128 10.119 6.244s6.692 1.102 9.133-.742a.536.536 0 0 0 .075-.068c.064-.067.066-.075.056-.065l.01-.013L31.48 27.4c.742-.849.682-2.184-.134-2.956l-6.126-5.799a1.965 1.965 0 0 0-2.84.138l-2.772 3.173c-2.25-.678-4.173-1.828-6.023-3.58s-3.132-3.637-3.993-5.905l2.771-3.173c.742-.849.683-2.184-.133-2.956L6.104.542A1.962 1.962 0 0 0 4.656.003h-.001zm.058 1.301c.19-.009.383.06.541.209l6.126 5.8a.788.788 0 0 1 .05 1.104l-3.063 3.504a.667.667 0 0 0-.124.665c.93 2.641 2.429 4.807 4.493 6.761s4.275 3.304 6.889 4.018a.612.612 0 0 0 .626-.193l3.064-3.505a.716.716 0 0 1 1.06-.051l6.127 5.8a.786.786 0 0 1 .049 1.103l-2.561 2.93c-2.003 1.497-4.826 1.581-7.986.542-3.173-1.043-6.617-3.202-9.666-5.98s-5.702-6.169-7.332-9.633C1.394 10.949.809 7.483 1.696 4.428l2.502-2.862a.736.736 0 0 1 .52-.261z"/>
        </symbol>
        <symbol id="icon-Group-2-3" viewBox="0 0 43 32">
            <path d="M19.102 4.52H5.443v1.028h13.659V4.52zM19.101 8.357H7.488v1.028h11.613V8.357zM19.102 12.195H5.443v1.028h13.659v-1.028zM19.101 16.032H7.488v1.028h11.613v-1.028zM19.102 19.869H5.443v1.028h13.659v-1.028zM19.101 23.707H7.488v1.028h11.613v-1.028zM37.851 4.52H24.192v1.028h13.659V4.52zM35.805 8.357H24.192v1.028h11.613V8.357zM37.851 12.195H24.192v1.028h13.659v-1.028zM35.805 16.032H24.192v1.028h11.613v-1.028zM37.851 19.869H24.192v1.028h13.659v-1.028zM35.805 23.707H24.192v1.028h11.613v-1.028z"/>
            <path  d="M42.783 3.348h-1.875V.514a.513.513 0 0 0-.511-.515H25.111a3.95 3.95 0 0 0-3.463 2.026 3.951 3.951 0 0 0-3.464-2.026H2.898a.513.513 0 0 0-.511.515v2.834H.512a.513.513 0 0 0-.511.515v27.622c0 .284.229.515.511.515h42.271c.282 0 .511-.23.511-.515V3.863a.513.513 0 0 0-.511-.515zM25.111 1.029h14.774V28.59H24.02c-.703 0-1.406.299-1.861.685V3.993a2.945 2.945 0 0 1 2.952-2.964zm-21.702 0h14.774a2.936 2.936 0 0 1 2.946 2.851c.001.022.003.091.006.113v25.28a2.979 2.979 0 0 0-1.855-.683H3.408V1.029zM1.023 4.378h1.364v24.727c0 .284.229.515.511.515h16.383c.78 0 1.533.515 1.774 1.351H1.023V4.378zm41.248 26.593H22.239a1.85 1.85 0 0 1 1.78-1.351h16.377c.282 0 .511-.23.511-.515V4.378h1.364v26.593z"/>
        </symbol>
        <symbol id="icon-Group-2-6" viewBox="0 0 37 32">
            <path  d="M2.318 29.826h12.404A3.786 3.786 0 0 0 18.15 32h.783c1.486 0 2.8-.853 3.429-2.174h12.41c1.278 0 2.318-1.054 2.318-2.349V4.965c0-1.295-1.04-2.349-2.318-2.349H33.52V1.567c0-.864-.693-1.566-1.545-1.566H5.108c-.852 0-1.545.702-1.545 1.566v1.049H2.319C1.041 2.616.001 3.67.001 4.965v22.512c0 1.295 1.04 2.349 2.318 2.349zm29.656-4.832H19.318V6.798c2.925.388 5.193 2.924 5.193 5.992v.706l-.183-.041a.772.772 0 0 0-.921.597l-1.23 5.672a.783.783 0 0 0 .589.932l2.658.594a1.979 1.979 0 0 0 2.352-1.533l.712-3.28a2.007 2.007 0 0 0-1.505-2.388l-.925-.207v-1.051c0-3.934-2.959-7.179-6.739-7.575v-3.65h12.657l-.001 23.428zm-7.223-9.84 1.898.424a.434.434 0 0 1 .33.522l-.712 3.28a.457.457 0 0 1-.515.34l-1.9-.424.899-4.142zM5.108 1.566h12.665v3.649c-3.784.391-6.746 3.64-6.746 7.576v1.051l-.927.207a1.968 1.968 0 0 0-1.24.877 2.007 2.007 0 0 0-.263 1.509l.71 3.277a1.993 1.993 0 0 0 1.936 1.583c.14 0 .279-.015.422-.046l2.647-.593a.783.783 0 0 0 .588-.932l-1.23-5.672a.773.773 0 0 0-.922-.597l-.177.04v-.705c0-3.071 2.272-5.609 5.201-5.993v18.197H5.107V1.566zm7.219 13.588.899 4.141-1.89.423a.439.439 0 0 1-.519-.337l-.712-3.284a.433.433 0 0 1 .328-.52l1.893-.423zM1.545 4.964c0-.432.346-.783.773-.783h1.244v20.813c0 .864.694 1.566 1.545 1.566h26.867c.852 0 1.545-.702 1.545-1.566V4.181h1.252c.426 0 .773.351.773.783v22.512a.778.778 0 0 1-.773.783H21.835a.774.774 0 0 0-.739.553 2.257 2.257 0 0 1-2.165 1.621h-.783c-.998 0-1.867-.649-2.168-1.63a.775.775 0 0 0-.736-.544H2.316a.779.779 0 0 1-.773-.783V4.964z"/>
        </symbol>
        <symbol id="icon-Group-2-5" viewBox="0 0 29 32">
            <path  d="M.061 32h28.427c.141-3.15-.091-8.376-2.085-10.863l-.072-.089-4.355-2.125a4.05 4.05 0 0 0 .16-.802 1.43 1.43 0 0 0-.106-.699c-.719-1.671-2.239-2.55-3.075-2.924a5.056 5.056 0 0 0 .498-1.582c.473-.13.854-.494.979-.98l.508-2.007a1.323 1.323 0 0 0-.472-1.378c1.433-3.163-.967-6.146-1.098-6.303-2.6-2.731-5.884-2.221-6.058-2.19-4.74.964-6.569 4.494-5.536 8.633a1.332 1.332 0 0 0-.321 1.238l.511 2.009c.124.483.502.846.972.977a5.102 5.102 0 0 0 1.223 2.639v1.591c-6.802 3.384-2.492 1.225-7.943 3.904-.011.05-2.558 2.68-2.179 10.475L.062 32zm27.44-1h-4.679v-1.91l3.094-6.883c1.55 2.5 1.608 7.273 1.584 8.792zm-6.386-12.965c-.181 2.015-1.318 1.406-2.02 2.958-.552-.59-.718-1.297-.57-2.055.268-1.391-.605-1.804-.39-3.265l.033-.033v-.005c.019-.02.191-.219.241-.282 1.851.784 2.742 2.242 2.706 2.681zm-9.93-1.583a5.377 5.377 0 0 0 3.012.921 5.365 5.365 0 0 0 2.904-.844c.119 1.149.581 1.379.417 2.224a3.582 3.582 0 0 0-.057.464l-3.186 3.489-4.073-4.462.983-.499v-1.293zm-1.281-4.27V6.849c.496-.891 1.172-1.537 2.012-1.925 2.25 1.237 4.84 3.083 6.577 4.941-.002 2.366.007 2.372-.009 2.567l-.001.012c-.136 2.148-1.954 3.929-4.285 3.929-2.267 0-4.149-1.729-4.285-3.951a2.746 2.746 0 0 1-.008-.241zm-.634 6.544 5.005 5.482 3.36-3.68c.077.215.185.418.308.614l-3.668 4.457-5.47-6.647.465-.227zm10.248-7.349V9.832l.382-.426c.021.782.108-.141-.382 1.97zM13.502 1.039c.203.012 2.935-.404 5.093 1.861.085.104 1.842 2.303 1.136 4.71-.242-1.071-.663-2.443-1.328-3.098l-.728.704c.657.647 1.089 2.616 1.253 3.637-3.015-3.065-6.903-5.005-6.957-5.037-.195.118-1.841.422-3.036 2.679l-.057.108v1.658l-.151.002c-.759-3.562.695-6.392 4.773-7.222zM8.621 9.29l.259 1.018v1.07l-.43-1.69c-.063-.252.129-.347.171-.398zm-.754 10.12 6.408 7.786 4.335-5.268c.472.41.698.468 1.698.968l-.337-1.111c-.086-.282.253-.735.458-.943a3.067 3.067 0 0 0 1.122-1.008l3.537 1.726-3.291 7.322v2.119H6.752v-2.119l-3.293-7.32 4.408-2.15zm-5.234 2.8 3.095 6.881V31H1.049c-.024-1.519.035-6.289 1.584-8.79z"/>
        </symbol>
        <symbol id="icon-Group-2-4" viewBox="0 0 32 32">
            <path  d="M1.979 12.558v2.831c0 .152.069.295.188.39a10.97 10.97 0 0 0 6.788 2.362c.735 0 1.471-.077 2.19-.224A11.85 11.85 0 0 0 16 18.949c1.695 0 3.327-.349 4.855-1.032 3.069.624 6.338-.046 8.977-2.138a.497.497 0 0 0 .188-.39v-2.831c0-.416-.205-.794-.571-1.027L25.61 9.355c.84-1.073 1.466-2.602 1.574-3.913.319-2.256-1.507-4.646-4.136-4.646a4.162 4.162 0 0 0-2.927 1.227c-.027.027-.057.049-.083.076-.024.025-.043.054-.066.08l-.044.053C19.177.852 17.733 0 16.032 0c-.165 0-.328.011-.488.028-.01-.001-.018-.006-.028-.006-.091 0-.285.024-.388.054-.015.004-.026.015-.041.021a4.453 4.453 0 0 0-2.991 2.156A4.134 4.134 0 0 0 8.94.796c-3.88 0-5.601 4.612-2.539 8.581l-3.875 2.167a1.193 1.193 0 0 0-.549 1.014zm18.867 4.27c-.083.041-.166.085-.25.123l-.002.001A10.862 10.862 0 0 1 16 17.958c-1.602 0-3.148-.338-4.596-1.007a10.876 10.876 0 0 1-2.03-1.221v-2.87c0-.098.047-.184.101-.221l4.509-2.524c.561.48 1.278.832 2.02.832.715 0 1.488-.357 2.038-.843l4.455 2.52a.277.277 0 0 1 .129.237v2.87c-.567.429-1.164.795-1.781 1.098zm8.099-4.446a.203.203 0 0 1 .091.176v2.587a9.864 9.864 0 0 1-6.688 1.98c.367-.23.766-.516 1.075-.76a.497.497 0 0 0 .188-.39v-3.114c0-.435-.217-.835-.606-1.087l-2.366-1.339.575-.321c.698.573 1.297.744 1.835.744.658 0 1.35-.325 1.864-.759l4.031 2.284zM23.05 1.788c1.371 0 2.574.902 3 2.142a3.665 3.665 0 0 1-2.221-1.142.489.489 0 0 0-.783.084 3.657 3.657 0 0 1-2.529 1.76v-.003a4.95 4.95 0 0 0-.032-.653l-.007-.067a5.536 5.536 0 0 0-.121-.609c.559-.902 1.598-1.513 2.694-1.513zm-2.641 3.856a4.603 4.603 0 0 0 3.142-1.762 4.634 4.634 0 0 0 2.682 1.056c-.007 1.792-1.461 4.927-3.183 4.927-1.328 0-2.461-1.912-2.885-3.238.108-.341.186-.669.244-.983zm.1 3.729-.88.491-.888-.502c.329-.413.631-.893.89-1.413.249.526.546 1.01.878 1.425zm-1.327-2.908c-.475 1.427-1.693 3.49-3.176 3.49-1.73 0-3.203-2.864-3.483-4.696.075-.019 2.412.126 4.02-2.001.816.688 1.918 1.143 2.989 1.188.013.647-.143 1.406-.35 2.018zM16.034.992c2.76 0 3.285 2.392 3.328 2.442a4.085 4.085 0 0 1-2.545-1.276.491.491 0 0 0-.784.087 4.048 4.048 0 0 1-3.555 2.022c.135-1.822 1.585-3.274 3.555-3.274zm-3.662 6.946a7.91 7.91 0 0 0 .906 1.438l-.869.487-.9-.51c.341-.438.631-.929.863-1.415zm-3.43-6.15c1.117 0 2.14.571 2.71 1.514-.029.1-.106.498-.116.548a3.646 3.646 0 0 1-1.808-1.062.49.49 0 0 0-.783.086 3.68 3.68 0 0 1-3.154 1.815c.157-1.627 1.507-2.9 3.151-2.9zm-3.108 3.89A4.663 4.663 0 0 0 9.45 3.882a4.578 4.578 0 0 0 2.041.961c.029.575.178 1.273.348 1.789-.272.84-.793 1.841-1.44 2.505l-.014.01c-.405.43-.981.719-1.434.719-1.583 0-2.82-2.508-3.117-4.188zm-2.87 6.88c0-.075.033-.139.067-.162l4.086-2.284c.245.206.302.229.351.265.481.322.922.482 1.523.482.64 0 1.223-.273 1.737-.694.029-.023.06-.045.087-.068l.583.33-2.429 1.361c-.363.236-.58.636-.58 1.071v3.114c0 .152.069.296.188.39.314.249.722.539 1.075.761a9.903 9.903 0 0 1-6.689-1.98v-2.587z"/>
            <path  d="M31.034 20.781a2.036 2.036 0 0 0-1.993-.11l-6.076 2.956a2.102 2.102 0 0 0-2.092-2.071l-3.484.001c-1.718-1.504-3.913-2.425-5.909-2.473-1.968-.047-3.735-.06-4.56-.064v-1.002H-.002v11.517H6.92v-1.379c1.898 1.097 6.889 3.845 9.258 3.845.054 0 .106-.001.157-.004 4.165-.235 13.989-7.198 14.637-7.661a2.08 2.08 0 0 0 1.026-1.796c0-.719-.361-1.376-.966-1.758zM5.937 28.542H.985v-9.533h4.952v9.533zm24.53-5.058a.296.296 0 0 0-.044.028c-.101.073-10.207 7.271-14.142 7.494a2.315 2.315 0 0 1-.12.003c-2.077 0-7.143-2.753-9.24-4.001v-6.997c.821.004 2.578.017 4.536.064 1.824.044 3.848.921 5.416 2.346l.14.128 3.86-.001c.612 0 1.111.502 1.111 1.119s-.498 1.119-1.111 1.119h-7.091v.992h7.091c.68 0 1.278-.333 1.662-.839l6.934-3.373c.34-.167.72-.146 1.041.057s.504.537.504.918c0 .391-.21.753-.549.945zM16.492 12.159h-.985v.92h.985v-.92zM16.492 13.992h-.985v.92h.985v-.92zM16.492 15.826h-.985v.92h.985v-.92z"/>
        </symbol>
        <symbol id="icon-Group-2-2" viewBox="0 0 31 32">
            <path  d="M29.467 0H13.758a1.851 1.851 0 0 0-1.855 1.844V8.31L.232 13.181a.377.377 0 0 0-.048.672l1.488.886v9.439a1.708 1.708 0 0 0-1.332 1.66v.91c0 .209.17.378.38.378h2.665c.21 0 .38-.169.38-.378v-.91c0-.809-.571-1.486-1.333-1.659v-8.988l1.177.7c-.036.27-.005-.47-.017 4.395 0 1.599 4.119 2.456 8.311 2.505v7.366c0 .381.117.734.317 1.028.333.49.898.813 1.536.813h15.709a1.85 1.85 0 0 0 1.853-1.842c0 .05-.002-1.56 0-28.313a1.861 1.861 0 0 0-1.852-1.844zM3.006 25.839v.532H1.101v-.532a.953.953 0 0 1 1.905 0zm26.461 5.403H13.758c-.377 0-.71-.19-.907-.478a1.074 1.074 0 0 1-.187-.607v-2.554h17.893v2.555c0 .592-.496 1.084-1.09 1.084zm1.09-4.394H12.664v-4.054c2.046-.023 8.316-.471 8.316-2.507-.002-3.056.005-4.295-.01-4.4l3.413-2.033a.378.378 0 0 0-.048-.672l-11.67-4.871V5.154h17.893v21.695zm-18.273-9.07c-2.108 0-6.167.271-7.931 1.416.011-3.502-.122-3.274.312-3.571 1.095-.802 4.228-1.362 7.619-1.362 1.479 0 7.936.404 7.936 1.764v3.17c-1.78-1.156-5.818-1.416-7.936-1.416zm.38-15.934c0-.599.49-1.087 1.093-1.087h15.709c.603 0 1.091.494 1.091 1.086v2.554H12.664V1.844zm-.38 7.127 11.064 4.618-2.741 1.631c-1.458-1.437-6.279-1.716-8.323-1.716-2.046 0-6.868.28-8.322 1.716L1.22 13.588 12.285 8.97zM4.353 20.287c0-.612 2.724-1.753 7.931-1.753 5.21 0 7.936 1.142 7.936 1.753s-2.726 1.754-7.936 1.754c-5.207 0-7.931-1.142-7.931-1.754z"/>
            <path d="M21.611 28.174c-.693 0-1.257.56-1.257 1.25s.564 1.25 1.257 1.25 1.257-.561 1.257-1.25-.564-1.25-1.257-1.25zm0 1.744c-.274 0-.497-.222-.497-.495s.223-.494.497-.494.497.221.497.494-.223.495-.497.495zM23.062 2.2h-2.899v.756h2.899V2.2z"/>
        </symbol>
        <symbol id="icon-Group-2-1" viewBox="0 0 30 32">
            <path  d="m29.977 4.975-.001-.002a.32.32 0 0 0-.06-.09L25.068.084a.329.329 0 0 0-.041-.033l-.009-.006c-.012-.007-.024-.014-.036-.019l-.011-.005a.287.287 0 0 0-.1-.02H3.509a.285.285 0 0 0-.286.284v29.271c0 .019.002.037.006.056l.007.023.009.03.014.026.013.023c.01.014.021.028.033.04l.003.003 2.183 2.161a.288.288 0 0 0 .405 0l1.982-1.961 1.981 1.961c.056.056.129.083.203.083s.146-.027.202-.083l1.981-1.96 1.982 1.96a.288.288 0 0 0 .405 0l1.981-1.96 1.981 1.96a.288.288 0 0 0 .405 0l1.982-1.961 1.981 1.961c.056.056.129.083.202.083s.147-.027.203-.083l1.981-1.96 1.982 1.96a.288.288 0 0 0 .405 0l2.183-2.161.011-.014.024-.029c.007-.009.011-.02.017-.03.003-.007.007-.012.009-.019.006-.013.009-.026.012-.039l.005-.013a.278.278 0 0 0 .006-.058V5.085a.287.287 0 0 0-.023-.108zM25.151.969l3.869 3.83h-3.869V.969zm4.275 28.468-1.896 1.878-1.982-1.961a.29.29 0 0 0-.405 0l-1.981 1.961-1.981-1.961a.29.29 0 0 0-.405 0l-1.982 1.961-1.98-1.96v-.001a.289.289 0 0 0-.405 0l-1.98 1.961-1.982-1.961a.29.29 0 0 0-.405 0l-1.981 1.961-1.981-1.961a.29.29 0 0 0-.405 0l-1.982 1.961-1.897-1.878V.567h20.783v4.516c0 .157.128.284.287.284h4.561v24.071z"/>
            <path  d="M5.931 3.251h9.384c.158 0 .287-.127.287-.284s-.128-.284-.287-.284H5.931c-.159 0-.287.127-.287.284s.128.284.287.284zM5.931 5.005H20.98c.158 0 .287-.127.287-.284s-.128-.284-.287-.284H5.931c-.159 0-.287.127-.287.284s.128.284.287.284zM5.645 6.58v9.186c0 .157.128.284.287.284h21.357a.285.285 0 0 0 .286-.284V6.58a.285.285 0 0 0-.286-.284H5.932a.285.285 0 0 0-.287.284zm6.333.284h15.024v2.442H11.978V6.864zm0 3.009h15.024v2.441H11.978V9.873zm0 3.008h15.024v2.602H11.978v-2.602zm-5.76-6.017h5.187v2.442H6.218V6.864zm0 3.009h5.187v2.441H6.218V9.873zm0 3.008h5.187v2.602H6.218v-2.602zM27.289 17.327H5.932a.285.285 0 0 0-.287.284v9.186c0 .157.128.283.287.283s.286-.127.286-.283v-2.885h5.187v2.885c0 .157.128.283.286.283s.287-.127.287-.283v-2.885h15.024v2.885c0 .157.128.283.287.283s.286-.127.286-.283v-9.186a.284.284 0 0 0-.286-.284zm-15.884 6.017H6.218v-2.44h5.187v2.44zm0-3.008H6.218v-2.441h5.187v2.441zm15.597 3.008H11.978v-2.44h15.024v2.44zm0-3.008H11.978v-2.441h15.024v2.441zM1.863 0a.286.286 0 0 0-.287.284v29.271c0 .156.128.283.287.283s.287-.127.287-.283V.284A.285.285 0 0 0 1.863 0zM.287 0A.286.286 0 0 0 0 .284v29.271c0 .156.128.283.287.283s.286-.127.286-.283V.284A.285.285 0 0 0 .287 0z"/>
        </symbol>
        <symbol id="icon-logo" viewBox="0 0 91 32">
            <path fill="#111518" style="fill: var(--color1, #111518)" d="M9.947 4.836h3.661v12.942h-3.661v-12.942zM4.955 17.778h-3.661v-12.942h3.661v12.942zM10.206 12.73h-5.51v-3.032h5.51v3.032zM22.014 17.944c-1.183 0-2.219-0.222-3.106-0.666-0.875-0.456-1.559-1.072-2.052-1.849-0.481-0.789-0.721-1.683-0.721-2.681s0.234-1.886 0.703-2.662c0.481-0.789 1.14-1.399 1.978-1.83 0.838-0.444 1.781-0.666 2.829-0.666 0.986 0 1.886 0.203 2.699 0.61 0.814 0.394 1.461 0.98 1.941 1.756s0.721 1.719 0.721 2.829c0 0.123-0.006 0.265-0.018 0.425s-0.025 0.308-0.037 0.444h-7.932v-1.849h6.064l-1.331 0.518c0.012-0.456-0.074-0.851-0.259-1.183-0.173-0.333-0.419-0.592-0.74-0.777-0.308-0.185-0.672-0.277-1.091-0.277s-0.789 0.092-1.109 0.277c-0.308 0.185-0.549 0.45-0.721 0.795-0.173 0.333-0.259 0.727-0.259 1.183v0.536c0 0.493 0.099 0.918 0.296 1.276 0.209 0.357 0.505 0.635 0.887 0.832 0.382 0.185 0.838 0.277 1.368 0.277 0.493 0 0.912-0.068 1.257-0.203 0.357-0.148 0.709-0.37 1.054-0.666l1.849 1.923c-0.481 0.53-1.072 0.937-1.775 1.22-0.703 0.271-1.535 0.407-2.496 0.407zM29.365 17.778v-13.719h3.513v13.719h-3.513zM35.901 17.778v-13.719h3.513v13.719h-3.513z"></path>
            <path fill="#ff6b09" style="fill: var(--color2, #ff6b09)" d="M4.625 26.596h0.922v3.982h-0.922v-3.982zM2.816 30.578h-0.922v-3.982h0.922v3.982zM4.693 28.945h-1.946v-0.779h1.946v0.779zM8.36 28.2h1.917v0.717h-1.917v-0.717zM8.429 29.838h2.167v0.74h-3.083v-3.982h3.009v0.74h-2.094v2.503zM12.354 30.578v-3.982h0.922v3.231h1.997v0.751h-2.918zM16.811 30.578v-3.982h0.922v3.231h1.997v0.751h-2.918zM21.268 30.578v-3.982h0.922v3.982h-0.922zM25.467 30.646c-0.319 0-0.624-0.042-0.916-0.125-0.292-0.087-0.527-0.199-0.705-0.336l0.313-0.694c0.171 0.121 0.372 0.222 0.603 0.302 0.235 0.076 0.472 0.114 0.711 0.114 0.182 0 0.328-0.017 0.438-0.051 0.114-0.038 0.197-0.089 0.25-0.154s0.080-0.138 0.080-0.222c0-0.106-0.042-0.19-0.125-0.25-0.084-0.064-0.193-0.116-0.33-0.154-0.137-0.042-0.288-0.080-0.455-0.114-0.163-0.038-0.328-0.083-0.495-0.137-0.163-0.053-0.313-0.121-0.449-0.205s-0.248-0.193-0.336-0.33c-0.084-0.137-0.125-0.311-0.125-0.523 0-0.228 0.061-0.434 0.182-0.62 0.125-0.19 0.311-0.339 0.558-0.449 0.25-0.114 0.563-0.171 0.939-0.171 0.25 0 0.497 0.030 0.74 0.091 0.243 0.057 0.457 0.144 0.643 0.262l-0.284 0.7c-0.186-0.106-0.372-0.184-0.558-0.233-0.186-0.053-0.368-0.080-0.546-0.080s-0.324 0.021-0.438 0.063-0.195 0.097-0.245 0.165c-0.049 0.064-0.074 0.14-0.074 0.228 0 0.102 0.042 0.186 0.125 0.25 0.083 0.061 0.193 0.11 0.33 0.148s0.286 0.076 0.449 0.114c0.167 0.038 0.332 0.082 0.495 0.131 0.167 0.049 0.319 0.116 0.455 0.199s0.246 0.193 0.33 0.33c0.087 0.137 0.131 0.309 0.131 0.518 0 0.224-0.063 0.429-0.188 0.614s-0.313 0.336-0.563 0.449c-0.247 0.114-0.559 0.171-0.939 0.171zM31.541 26.596h0.922v3.982h-0.922v-3.982zM29.732 30.578h-0.922v-3.982h0.922v3.982zM31.61 28.945h-1.946v-0.779h1.946v0.779z"></path>
            <path fill="#111518" style="fill: var(--color1, #111518)" d="M37.912 28.2h1.917v0.717h-1.917v-0.717zM37.98 29.838h2.167v0.74h-3.083v-3.982h3.009v0.74h-2.093v2.503zM41.905 30.578v-3.982h0.762l2.349 2.867h-0.37v-2.867h0.91v3.982h-0.757l-2.355-2.867h0.37v2.867h-0.91zM49.446 30.646c-0.315 0-0.605-0.049-0.87-0.148-0.262-0.102-0.491-0.247-0.688-0.432-0.193-0.186-0.345-0.404-0.455-0.654-0.106-0.25-0.159-0.525-0.159-0.825s0.053-0.575 0.159-0.825c0.11-0.25 0.264-0.468 0.461-0.654s0.429-0.328 0.694-0.427c0.266-0.102 0.557-0.154 0.876-0.154 0.353 0 0.669 0.059 0.95 0.176 0.284 0.118 0.523 0.288 0.717 0.512l-0.592 0.546c-0.144-0.152-0.301-0.264-0.472-0.336-0.171-0.076-0.356-0.114-0.557-0.114-0.193 0-0.37 0.030-0.529 0.091s-0.298 0.148-0.415 0.262c-0.114 0.114-0.203 0.248-0.267 0.404-0.061 0.156-0.091 0.328-0.091 0.518 0 0.186 0.030 0.356 0.091 0.512 0.065 0.156 0.154 0.292 0.267 0.41 0.118 0.114 0.254 0.201 0.41 0.262 0.159 0.061 0.334 0.091 0.523 0.091 0.182 0 0.358-0.028 0.529-0.085 0.175-0.061 0.343-0.161 0.506-0.302l0.523 0.666c-0.216 0.163-0.468 0.288-0.757 0.375-0.284 0.087-0.569 0.131-0.853 0.131zM50.214 30.020v-1.496h0.842v1.616l-0.842-0.119zM52.936 30.578v-3.982h0.922v3.231h1.997v0.751h-2.918zM57.394 30.578v-3.982h0.922v3.982h-0.922zM61.593 30.646c-0.319 0-0.624-0.042-0.916-0.125-0.292-0.087-0.527-0.199-0.705-0.336l0.313-0.694c0.171 0.121 0.372 0.222 0.603 0.302 0.235 0.076 0.472 0.114 0.711 0.114 0.182 0 0.328-0.017 0.438-0.051 0.114-0.038 0.197-0.089 0.25-0.154s0.080-0.138 0.080-0.222c0-0.106-0.042-0.19-0.125-0.25-0.083-0.064-0.193-0.116-0.33-0.154-0.137-0.042-0.288-0.080-0.455-0.114-0.163-0.038-0.328-0.083-0.495-0.137-0.163-0.053-0.313-0.121-0.449-0.205s-0.248-0.193-0.336-0.33c-0.083-0.137-0.125-0.311-0.125-0.523 0-0.228 0.061-0.434 0.182-0.62 0.125-0.19 0.311-0.339 0.557-0.449 0.25-0.114 0.563-0.171 0.939-0.171 0.25 0 0.497 0.030 0.74 0.091 0.243 0.057 0.457 0.144 0.643 0.262l-0.284 0.7c-0.186-0.106-0.372-0.184-0.557-0.233-0.186-0.053-0.368-0.080-0.546-0.080s-0.324 0.021-0.438 0.063-0.195 0.097-0.245 0.165c-0.049 0.064-0.074 0.14-0.074 0.228 0 0.102 0.042 0.186 0.125 0.25 0.084 0.061 0.193 0.11 0.33 0.148s0.286 0.076 0.449 0.114c0.167 0.038 0.332 0.082 0.495 0.131 0.167 0.049 0.319 0.116 0.455 0.199s0.247 0.193 0.33 0.33c0.087 0.137 0.131 0.309 0.131 0.518 0 0.224-0.063 0.429-0.188 0.614s-0.313 0.336-0.563 0.449c-0.246 0.114-0.559 0.171-0.939 0.171zM67.667 26.596h0.922v3.982h-0.922v-3.982zM65.858 30.578h-0.922v-3.982h0.922v3.982zM67.735 28.945h-1.946v-0.779h1.946v0.779z"></path>
            <path fill="#111518" style="fill: var(--color1, #111518)" d="M67.237 9.846h6.009v2.736h-6.009v-2.736zM67.496 14.949h6.767v2.829h-10.391v-12.942h10.15v2.829h-6.527v7.285zM77.034 17.778v-12.942h3.014l7.137 8.616h-1.424v-8.616h3.587v12.942h-3.014l-7.137-8.616h1.424v8.616h-3.587z"></path>
            <path fill="#ff6b09" style="fill: var(--color2, #ff6b09)" d="M58.695 11.062c-0.189-0.423-0.45-0.84-0.831-1.322-0.962-1.209-1.255-3.905-1.258-3.931-0.013-0.129-0.104-0.236-0.225-0.275-0.124-0.039-0.257-0.003-0.345 0.094-1.147 1.283-0.665 3.265-0.404 4.057 0.072 0.217 0.15 0.472 0.205 0.731 0.424 2.091-0.394 3.038-0.587 3.229-0.186 0.052-0.313 0.026-0.43-0.1-0.404-0.443-0.538-1.894-0.349-3.785 0.039-0.385 0.029-0.731-0.026-1.054-0.399-2.324-1.86-3.815-2.233-4.338-1.023-1.513-1.128-4.031-1.131-4.053-0.003-0.12-0.072-0.226-0.179-0.278-0.104-0.052-0.231-0.045-0.329 0.023-1.708 1.16-1.561 3.956-1.323 5.518 0.055 0.362 0.163 0.731 0.349 1.196 0.662 1.665-0.13 3.814-0.137 3.834s-0.013 0.036-0.016 0.055c-0.101 0.53-0.271 0.847-0.46 0.847-0.020 0-0.039-0.003-0.062-0.010-0.231-0.049-0.352-0.294-0.355-0.507-0.013-2.757-2.78-3.685-2.809-3.695-0.124-0.039-0.261-0.003-0.345 0.097-0.088 0.1-0.104 0.239-0.046 0.356 0.033 0.068 0.137 0.365 0.065 1.416-0.062 0.944-0.235 1.878-0.512 2.773-0.658 2.146-0.554 4.179-0.548 4.276 0.506 5.505 8.423 6.469 13.122 3.368 0.515-0.339 0.935-0.727 1.245-1.154 1.734-2.392 0.714-5.64-0.046-7.366zM46.652 16.321c0.010 0.178-0.127 0.33-0.306 0.339h-0.020c-0.173 0-0.316-0.133-0.326-0.304-0.029-0.472-0.023-0.966 0.013-1.503 0.013-0.178 0.169-0.31 0.349-0.301 0.179 0.013 0.316 0.168 0.303 0.346-0.036 0.511-0.042 0.976-0.013 1.422zM46.812 13.457c-0.020 0.165-0.16 0.284-0.323 0.284-0.013 0-0.026 0-0.042-0.003-0.176-0.023-0.303-0.181-0.284-0.359l0.156-1.248c0.023-0.175 0.183-0.301 0.365-0.281 0.179 0.023 0.306 0.184 0.284 0.362l-0.156 1.245z"></path>
            <path fill="#ff6b09" style="fill: var(--color2, #ff6b09)" d="M56.49 4.422c-0.178-0.027-0.3-0.192-0.272-0.368 0.020-0.131 0.138-0.804 0.458-1.142 0.123-0.13 0.329-0.137 0.461-0.015s0.138 0.327 0.015 0.457c-0.135 0.143-0.25 0.553-0.289 0.798-0.028 0.174-0.191 0.297-0.372 0.27z"></path>
            <path fill="#ff6b09" style="fill: var(--color2, #ff6b09)" d="M44.608 6.032c-0.062-0.24-0.217-0.637-0.366-0.766-0.135-0.118-0.149-0.322-0.030-0.456s0.324-0.148 0.46-0.030c0.351 0.305 0.535 0.963 0.568 1.092 0.045 0.173-0.060 0.349-0.235 0.393-0.178 0.044-0.353-0.063-0.397-0.232z"></path>
        </symbol>
        <symbol id="icon-logo-white" viewBox="0 0 85 32">
            <path fill="#fff" style="fill: var(--color1, #fff)" d="M11.933 4.825v12.913h-3.548v-5.036h-4.838v5.036h-3.548v-12.913h3.548v4.851h4.838v-4.851h3.548z"></path>
            <path fill="#fff" style="fill: var(--color1, #fff)" d="M24.918 12.757c0 0.025-0.018 0.314-0.054 0.867h-7.060c0.143 0.516 0.418 0.916 0.824 1.199 0.418 0.271 0.938 0.406 1.559 0.406 0.466 0 0.866-0.068 1.2-0.203 0.346-0.135 0.693-0.357 1.039-0.664l1.792 1.919c-0.944 1.082-2.323 1.623-4.139 1.623-1.135 0-2.132-0.221-2.992-0.664s-1.529-1.058-2.007-1.845c-0.466-0.787-0.699-1.679-0.699-2.675 0-0.984 0.227-1.863 0.681-2.638 0.466-0.787 1.105-1.402 1.917-1.845s1.726-0.664 2.741-0.664c0.968 0 1.846 0.209 2.634 0.627 0.788 0.406 1.41 1.002 1.863 1.789 0.466 0.775 0.699 1.697 0.699 2.767zM19.739 10.064c-0.526 0-0.968 0.154-1.326 0.461-0.346 0.307-0.567 0.726-0.663 1.254h3.978c-0.096-0.529-0.323-0.947-0.681-1.254-0.346-0.307-0.782-0.461-1.308-0.461z"></path>
            <path fill="#fff" style="fill: var(--color1, #fff)" d="M27.204 4.050h3.404v13.688h-3.404v-13.688z"></path>
            <path fill="#fff" style="fill: var(--color1, #fff)" d="M33.538 4.050h3.404v13.688h-3.404v-13.688z"></path>
            <path fill="#ff6b09" style="fill: var(--color2, #ff6b09)" d="M3.003 27.011h0.864v3.733h-0.864v-3.733zM1.307 30.744h-0.864v-3.733h0.864v3.733zM3.067 29.214h-1.824v-0.731h1.824v0.731zM6.505 28.515h1.797v0.672h-1.797v-0.672zM6.569 30.051h2.032v0.693h-2.891v-3.733h2.821v0.693h-1.963v2.347zM10.248 30.744v-3.733h0.864v3.029h1.872v0.704h-2.736zM14.427 30.744v-3.733h0.864v3.029h1.872v0.704h-2.736zM18.606 30.744v-3.733h0.864v3.733h-0.864zM22.542 30.808c-0.299 0-0.585-0.039-0.859-0.117-0.274-0.082-0.494-0.187-0.661-0.315l0.293-0.651c0.16 0.114 0.348 0.208 0.565 0.283 0.22 0.071 0.443 0.107 0.667 0.107 0.171 0 0.308-0.016 0.411-0.048 0.107-0.036 0.185-0.084 0.235-0.144s0.075-0.13 0.075-0.208c0-0.1-0.039-0.178-0.117-0.235-0.078-0.060-0.181-0.108-0.309-0.144-0.128-0.039-0.27-0.075-0.427-0.107-0.153-0.036-0.308-0.078-0.464-0.128-0.153-0.050-0.293-0.114-0.421-0.192s-0.233-0.181-0.315-0.309c-0.078-0.128-0.117-0.292-0.117-0.491 0-0.213 0.057-0.407 0.171-0.581 0.117-0.178 0.292-0.318 0.523-0.421 0.235-0.107 0.528-0.16 0.88-0.16 0.235 0 0.466 0.028 0.693 0.085 0.228 0.053 0.428 0.135 0.603 0.245l-0.267 0.656c-0.174-0.1-0.348-0.172-0.523-0.219-0.174-0.050-0.345-0.075-0.512-0.075s-0.304 0.020-0.411 0.059c-0.107 0.039-0.183 0.091-0.229 0.155-0.046 0.060-0.069 0.132-0.069 0.213 0 0.096 0.039 0.174 0.117 0.235 0.078 0.057 0.181 0.103 0.309 0.139s0.268 0.071 0.421 0.107c0.156 0.036 0.311 0.076 0.464 0.123 0.156 0.046 0.299 0.108 0.427 0.187s0.231 0.181 0.309 0.309c0.082 0.128 0.123 0.29 0.123 0.485 0 0.21-0.059 0.402-0.176 0.576s-0.293 0.315-0.528 0.421c-0.231 0.107-0.524 0.16-0.88 0.16zM28.237 27.011h0.864v3.733h-0.864v-3.733zM26.541 30.744h-0.864v-3.733h0.864v3.733zM28.301 29.214h-1.824v-0.731h1.824v0.731z"></path>
            <path fill="#fff" style="fill: var(--color1, #fff)" d="M34.209 28.515h1.797v0.672h-1.797v-0.672zM34.273 30.051h2.032v0.693h-2.891v-3.733h2.821v0.693h-1.963v2.347zM37.952 30.744v-3.733h0.715l2.203 2.688h-0.347v-2.688h0.853v3.733h-0.709l-2.208-2.688h0.347v2.688h-0.853zM45.022 30.808c-0.295 0-0.567-0.046-0.816-0.139-0.245-0.096-0.46-0.231-0.645-0.405-0.181-0.174-0.324-0.379-0.427-0.613-0.1-0.235-0.149-0.492-0.149-0.773s0.050-0.539 0.149-0.773c0.103-0.235 0.247-0.439 0.432-0.613s0.402-0.308 0.651-0.4c0.249-0.096 0.523-0.144 0.821-0.144 0.331 0 0.628 0.055 0.891 0.165 0.267 0.11 0.491 0.27 0.672 0.48l-0.555 0.512c-0.135-0.142-0.283-0.247-0.443-0.315-0.16-0.071-0.334-0.107-0.523-0.107-0.181 0-0.347 0.028-0.496 0.085s-0.279 0.139-0.389 0.245c-0.107 0.107-0.19 0.233-0.251 0.379-0.057 0.146-0.085 0.308-0.085 0.485 0 0.174 0.028 0.334 0.085 0.48 0.060 0.146 0.144 0.274 0.251 0.384 0.11 0.107 0.238 0.188 0.384 0.245 0.149 0.057 0.313 0.085 0.491 0.085 0.171 0 0.336-0.027 0.496-0.080 0.164-0.057 0.322-0.151 0.475-0.283l0.491 0.624c-0.203 0.153-0.439 0.27-0.709 0.352-0.267 0.082-0.533 0.123-0.8 0.123zM45.742 30.222v-1.403h0.789v1.515l-0.789-0.112zM48.294 30.744v-3.733h0.864v3.029h1.872v0.704h-2.736zM52.473 30.744v-3.733h0.864v3.733h-0.864zM56.41 30.808c-0.299 0-0.585-0.039-0.859-0.117-0.274-0.082-0.494-0.187-0.661-0.315l0.293-0.651c0.16 0.114 0.348 0.208 0.565 0.283 0.22 0.071 0.443 0.107 0.667 0.107 0.171 0 0.308-0.016 0.411-0.048 0.107-0.036 0.185-0.084 0.235-0.144s0.075-0.13 0.075-0.208c0-0.1-0.039-0.178-0.117-0.235-0.078-0.060-0.181-0.108-0.309-0.144-0.128-0.039-0.27-0.075-0.427-0.107-0.153-0.036-0.308-0.078-0.464-0.128-0.153-0.050-0.293-0.114-0.421-0.192s-0.233-0.181-0.315-0.309c-0.078-0.128-0.117-0.292-0.117-0.491 0-0.213 0.057-0.407 0.171-0.581 0.117-0.178 0.292-0.318 0.523-0.421 0.235-0.107 0.528-0.16 0.88-0.16 0.235 0 0.466 0.028 0.693 0.085 0.228 0.053 0.428 0.135 0.603 0.245l-0.267 0.656c-0.174-0.1-0.348-0.172-0.523-0.219-0.174-0.050-0.345-0.075-0.512-0.075s-0.304 0.020-0.411 0.059c-0.107 0.039-0.183 0.091-0.229 0.155-0.046 0.060-0.069 0.132-0.069 0.213 0 0.096 0.039 0.174 0.117 0.235 0.078 0.057 0.181 0.103 0.309 0.139s0.268 0.071 0.421 0.107c0.156 0.036 0.311 0.076 0.464 0.123 0.156 0.046 0.299 0.108 0.427 0.187s0.231 0.181 0.309 0.309c0.082 0.128 0.123 0.29 0.123 0.485 0 0.21-0.059 0.402-0.176 0.576s-0.293 0.315-0.528 0.421c-0.231 0.107-0.524 0.16-0.88 0.16zM62.104 27.011h0.864v3.733h-0.864v-3.733zM60.408 30.744h-0.864v-3.733h0.864v3.733zM62.168 29.214h-1.824v-0.731h1.824v0.731z"></path>
            <path fill="#fff" style="fill: var(--color1, #fff)" d="M70.715 14.915v2.822h-10.070v-12.913h9.837v2.822h-6.325v2.177h5.572v2.73h-5.572v2.361h6.558z"></path>
            <path fill="#fff" style="fill: var(--color1, #fff)" d="M85.333 4.824v12.913h-2.921l-5.537-6.881v6.881h-3.476v-12.913h2.921l5.537 6.881v-6.881h3.476z"></path>
            <path fill="#ff6b09" style="fill: var(--color2, #ff6b09)" d="M55.628 11.037c-0.183-0.423-0.436-0.839-0.805-1.319-0.932-1.206-1.216-3.896-1.219-3.922-0.013-0.129-0.101-0.235-0.218-0.274-0.12-0.039-0.25-0.003-0.335 0.094-1.112 1.28-0.644 3.257-0.392 4.047 0.069 0.216 0.145 0.471 0.199 0.729 0.411 2.087-0.382 3.031-0.569 3.222-0.18 0.052-0.303 0.026-0.417-0.1-0.392-0.442-0.521-1.89-0.338-3.776 0.038-0.384 0.028-0.729-0.025-1.051-0.386-2.319-1.803-3.806-2.164-4.328-0.992-1.509-1.093-4.022-1.096-4.044-0.003-0.119-0.070-0.226-0.174-0.277-0.101-0.052-0.224-0.045-0.319 0.023-1.655 1.158-1.513 3.947-1.282 5.505 0.054 0.361 0.158 0.729 0.338 1.193 0.641 1.661-0.126 3.805-0.133 3.825s-0.013 0.035-0.016 0.055c-0.098 0.529-0.262 0.845-0.445 0.845-0.019 0-0.038-0.003-0.060-0.010-0.224-0.048-0.341-0.293-0.344-0.506-0.013-2.751-2.694-3.676-2.723-3.686-0.12-0.039-0.253-0.003-0.335 0.097-0.085 0.1-0.101 0.239-0.044 0.355 0.032 0.068 0.133 0.364 0.063 1.413-0.060 0.942-0.227 1.874-0.496 2.767-0.638 2.141-0.537 4.17-0.531 4.267 0.491 5.492 8.163 6.455 12.716 3.36 0.499-0.339 0.906-0.726 1.206-1.151 1.68-2.386 0.692-5.628-0.044-7.35zM43.957 16.284c0.009 0.177-0.123 0.329-0.297 0.339h-0.019c-0.167 0-0.306-0.132-0.316-0.303-0.028-0.471-0.022-0.964 0.013-1.5 0.013-0.177 0.164-0.31 0.338-0.3 0.174 0.013 0.306 0.168 0.294 0.345-0.035 0.51-0.041 0.974-0.013 1.419zM44.112 13.426c-0.019 0.164-0.155 0.284-0.313 0.284-0.013 0-0.025 0-0.041-0.003-0.171-0.023-0.294-0.181-0.275-0.358l0.152-1.245c0.022-0.174 0.177-0.3 0.354-0.281 0.174 0.023 0.297 0.184 0.275 0.361l-0.152 1.242z"></path>
            <path fill="#ff6b09" style="fill: var(--color2, #ff6b09)" d="M53.492 4.412c-0.172-0.027-0.29-0.192-0.264-0.368 0.020-0.131 0.134-0.802 0.444-1.139 0.119-0.13 0.319-0.137 0.447-0.015s0.134 0.326 0.014 0.456c-0.131 0.143-0.243 0.552-0.28 0.796-0.027 0.174-0.186 0.296-0.361 0.269z"></path>
            <path fill="#ff6b09" style="fill: var(--color2, #ff6b09)" d="M41.976 6.018c-0.060-0.24-0.211-0.635-0.355-0.764-0.131-0.117-0.144-0.321-0.029-0.455s0.314-0.148 0.446-0.030c0.34 0.305 0.518 0.961 0.55 1.089 0.043 0.172-0.059 0.348-0.227 0.392-0.172 0.044-0.342-0.062-0.385-0.232z"></path>
        </symbol>
        <symbol id="icon-menu-burger" viewBox="0 0 15 15">
            <path d="M3.2 5.867v-1.067h9.6v1.067h-9.6zM3.2 8.533h9.6v-1.067h-9.6v1.067zM3.2 11.2h9.6v-1.067h-9.6v1.067z"></path>
        </symbol>
        <symbol id="icon-menu-cross" viewBox="0 0 20 20">
            <path fill="none" stroke="#fff" style="stroke: var(--color1, #fff)" stroke-linejoin="miter" stroke-linecap="round" stroke-miterlimit="4" stroke-width="2.3529" d="M1.176 18.23l17.054-17.054"></path>
            <path fill="none" stroke="#fff" style="stroke: var(--color1, #fff)" stroke-linejoin="miter" stroke-linecap="round" stroke-miterlimit="4" stroke-width="2.3529" d="M18.231 18.23l-17.054-17.054"></path>
        </symbol>
        <symbol id="icon-Arrow-2" viewBox="0 0 54 32">
            <path fill="#ff6b09" style="fill:var(--color1, #ff6b09)" d="M2 14a2 2 0 1 0 0 4v-4zm51.414 3.414a2 2 0 0 0 0-2.828L40.686 1.858a2 2 0 1 0-2.828 2.828L49.172 16 37.858 27.314a2 2 0 1 0 2.828 2.828l12.728-12.728zM2 18h50v-4H2v4z"/>
        </symbol>
        <symbol id="icon-Arrow-1" viewBox="0 0 54 32">
            <path fill="#ff6b09" style="fill:var(--color1, #ff6b09)" d="M52 14a2 2 0 1 1 0 4v-4zM.586 17.414a2 2 0 0 1 0-2.828L13.314 1.858a2 2 0 1 1 2.828 2.828L4.828 16l11.314 11.314a2 2 0 1 1-2.828 2.828L.586 17.414zM52 18H2v-4h50v4z"/>
        </symbol>
        <symbol id="icon-Vector" viewBox="0 0 40 32">
            <path fill="#ff6b09" style="fill:var(--color1, #ff6b09)" d="M35.296 1.514a30.274 30.274 0 0 0-4.369 2.379c-2.797 1.797-5.355 3.936-7.754 6.218-2.398 2.287-4.63 4.735-6.741 7.28-.528.636-2.892 3.47-2.892 3.47L3.71 6.481-.001 16.523 13.292 32c1.291-2.551 2.533-5.07 3.752-7.258.303-.556.62-1.08.923-1.612 0 0 1.56-2.677 1.97-3.352 1.64-2.697 3.414-5.325 5.366-7.821 1.955-2.491 4.08-4.87 6.489-6.961a29.016 29.016 0 0 1 3.842-2.872c1.364-.848 2.814-1.591 4.365-2.125-1.613.31-3.187.848-4.704 1.514z"/>
        </symbol>
        <symbol id="icon-mobmenu" viewBox="0 0 16 16">
            <path d="M3.2 5.867v-1.067h9.6v1.067h-9.6zM3.2 8.533h9.6v-1.067h-9.6v1.067zM3.2 11.2h9.6v-1.067h-9.6v1.067z"></path>
        </symbol>
    </defs>
</svg>